<svg xmlns="http://www.w3.org/2000/svg" width="1280" height="760" viewBox="0 0 1280 760" font-family="-apple-system, BlinkMacSystemFont, 'Segoe UI', Roboto, Helvetica, Arial, sans-serif"><rect x="0" y="0" width="1280" height="760" fill="#202024"/><rect x="0" y="0" width="1280" height="64" fill="#1b1b1d"/><line x1="0" y1="64" x2="1280" y2="64" stroke="#303034" stroke-width="1"/><rect x="20" y="16" width="32" height="32" fill="#161618" rx="6" stroke="#303034" stroke-width="1"/><text x="36" y="38" fill="#e7e7ea" font-size="18" text-anchor="middle">‹</text><rect x="58" y="16" width="78" height="32" fill="#161618" rx="6" stroke="#303034" stroke-width="1"/><text x="97" y="37" fill="#9a9aa2" font-size="13" text-anchor="middle">Today</text><rect x="142" y="16" width="32" height="32" fill="#161618" rx="6" stroke="#303034" stroke-width="1"/><text x="158" y="38" fill="#e7e7ea" font-size="18" text-anchor="middle">›</text><text x="196" y="41" fill="#e7e7ea" font-size="19" font-weight="600">June 2026</text><rect x="900" y="22" width="15" height="15" fill="#161618" rx="3" stroke="#3a3a40" stroke-width="1"/><text x="922" y="35" fill="#9a9aa2" font-size="13">Hide done</text><rect x="1010" y="23" width="34" height="18" fill="#8b5cf6" rx="9"/><circle cx="1035" cy="32" r="6.5" fill="#ffffff"/><text x="1050" y="36" fill="#9a9aa2" font-size="13">Outlook</text><rect x="1132" y="16" width="34" height="32" fill="#161618" rx="6" stroke="#303034" stroke-width="1"/><text x="1149" y="38" fill="#e7e7ea" font-size="16" text-anchor="middle">↻</text><rect x="1174" y="16" width="92" height="32" fill="#161618" rx="6" stroke="#303034" stroke-width="1"/><text x="1220" y="37" fill="#9a9aa2" font-size="12.5" text-anchor="middle">Open board</text><rect x="0" y="64" width="1280" height="32" fill="#1b1b1d"/><text x="12" y="85" fill="#6d6d75" font-size="12" font-weight="600">Mon</text><text x="194.85714285714286" y="85" fill="#6d6d75" font-size="12" font-weight="600">Tue</text><text x="377.7142857142857" y="85" fill="#6d6d75" font-size="12" font-weight="600">Wed</text><text x="560.5714285714286" y="85" fill="#6d6d75" font-size="12" font-weight="600">Thu</text><text x="743.4285714285714" y="85" fill="#6d6d75" font-size="12" font-weight="600">Fri</text><text x="926.2857142857143" y="85" fill="#6d6d75" font-size="12" font-weight="600">Sat</text><text x="1109.142857142857" y="85" fill="#6d6d75" font-size="12" font-weight="600">Sun</text><line x1="0" y1="96" x2="1280" y2="96" stroke="#303034" stroke-width="1"/><line x1="182.85714285714286" y1="96" x2="182.85714285714286" y2="228.8" stroke="#303034" stroke-width="1"/><line x1="0" y1="228.8" x2="182.85714285714286" y2="228.8" stroke="#303034" stroke-width="1"/><text x="168.85714285714286" y="118" fill="#9a9aa2" font-size="12" text-anchor="end">1</text><line x1="365.7142857142857" y1="96" x2="365.7142857142857" y2="228.8" stroke="#303034" stroke-width="1"/><line x1="182.85714285714286" y1="228.8" x2="365.7142857142857" y2="228.8" stroke="#303034" stroke-width="1"/><text x="351.7142857142857" y="118" fill="#9a9aa2" font-size="12" text-anchor="end">2</text><rect x="190.85714285714286" y="130" width="166.85714285714286" height="20" fill="#303034" rx="5"/><circle cx="199.85714285714286" cy="140" r="3.5" fill="#2563eb"/><text x="208.85714285714286" y="144" fill="#9a9aa2" font-size="10.5" font-weight="600">09:00</text><text x="240.85714285714286" y="144" fill="#e7e7ea" font-size="10.5">Standup</text><line x1="548.5714285714286" y1="96" x2="548.5714285714286" y2="228.8" stroke="#303034" stroke-width="1"/><line x1="365.7142857142857" y1="228.8" x2="548.5714285714286" y2="228.8" stroke="#303034" stroke-width="1"/><text x="534.5714285714286" y="118" fill="#9a9aa2" font-size="12" text-anchor="end">3</text><rect x="373.7142857142857" y="130" width="166.85714285714286" height="20" fill="#303034" rx="5"/><rect x="373.7142857142857" y="130" width="3" height="20" fill="#8b5cf6"/><text x="383.7142857142857" y="144" fill="#e7e7ea" font-size="10.5" font-weight="400">Offerte AIM</text><line x1="731.4285714285714" y1="96" x2="731.4285714285714" y2="228.8" stroke="#303034" stroke-width="1"/><line x1="548.5714285714286" y1="228.8" x2="731.4285714285714" y2="228.8" stroke="#303034" stroke-width="1"/><text x="717.4285714285714" y="118" fill="#9a9aa2" font-size="12" text-anchor="end">4</text><rect x="556.5714285714286" y="130" width="166.85714285714286" height="20" fill="#303034" rx="5"/><circle cx="565.5714285714286" cy="140" r="3.5" fill="#0891b2"/><text x="574.5714285714286" y="144" fill="#9a9aa2" font-size="10.5" font-weight="600">14:00</text><text x="606.5714285714286" y="144" fill="#e7e7ea" font-size="10.5">Klant call</text><rect x="556.5714285714286" y="154" width="166.85714285714286" height="20" fill="#303034" rx="5"/><rect x="556.5714285714286" y="154" width="3" height="20" fill="#4a4a52"/><text x="566.5714285714286" y="168" fill="#6d6d75" font-size="10.5" font-weight="400" text-decoration="line-through">Cijfers opvragen</text><line x1="914.2857142857143" y1="96" x2="914.2857142857143" y2="228.8" stroke="#303034" stroke-width="1"/><line x1="731.4285714285714" y1="228.8" x2="914.2857142857143" y2="228.8" stroke="#303034" stroke-width="1"/><text x="900.2857142857143" y="118" fill="#9a9aa2" font-size="12" text-anchor="end">5</text><rect x="739.4285714285714" y="130" width="166.85714285714286" height="20" fill="#303034" rx="5"/><rect x="739.4285714285714" y="130" width="3" height="20" fill="#4a4a52"/><text x="749.4285714285714" y="144" fill="#e7e7ea" font-size="10.5" font-weight="400">Review tekst</text><line x1="1097.142857142857" y1="96" x2="1097.142857142857" y2="228.8" stroke="#303034" stroke-width="1"/><line x1="914.2857142857143" y1="228.8" x2="1097.142857142857" y2="228.8" stroke="#303034" stroke-width="1"/><text x="1083.142857142857" y="118" fill="#9a9aa2" font-size="12" text-anchor="end">6</text><line x1="1280" y1="96" x2="1280" y2="228.8" stroke="#303034" stroke-width="1"/><line x1="1097.142857142857" y1="228.8" x2="1280" y2="228.8" stroke="#303034" stroke-width="1"/><text x="1266" y="118" fill="#9a9aa2" font-size="12" text-anchor="end">7</text><line x1="182.85714285714286" y1="228.8" x2="182.85714285714286" y2="361.6" stroke="#303034" stroke-width="1"/><line x1="0" y1="361.6" x2="182.85714285714286" y2="361.6" stroke="#303034" stroke-width="1"/><text x="168.85714285714286" y="250.8" fill="#9a9aa2" font-size="12" text-anchor="end">8</text><line x1="365.7142857142857" y1="228.8" x2="365.7142857142857" y2="361.6" stroke="#303034" stroke-width="1"/><line x1="182.85714285714286" y1="361.6" x2="365.7142857142857" y2="361.6" stroke="#303034" stroke-width="1"/><text x="351.7142857142857" y="250.8" fill="#9a9aa2" font-size="12" text-anchor="end">9</text><rect x="190.85714285714286" y="262.8" width="166.85714285714286" height="20" fill="#303034" rx="5"/><circle cx="199.85714285714286" cy="272.8" r="3.5" fill="#2563eb"/><text x="208.85714285714286" y="276.8" fill="#9a9aa2" font-size="10.5" font-weight="600">11:00</text><text x="240.85714285714286" y="276.8" fill="#e7e7ea" font-size="10.5">1:1 Sam</text><line x1="548.5714285714286" y1="228.8" x2="548.5714285714286" y2="361.6" stroke="#303034" stroke-width="1"/><line x1="365.7142857142857" y1="361.6" x2="548.5714285714286" y2="361.6" stroke="#303034" stroke-width="1"/><text x="534.5714285714286" y="250.8" fill="#9a9aa2" font-size="12" text-anchor="end">10</text><rect x="373.7142857142857" y="262.8" width="166.85714285714286" height="20" fill="#303034" rx="5"/><rect x="373.7142857142857" y="262.8" width="3" height="20" fill="#8b5cf6"/><text x="383.7142857142857" y="276.8" fill="#e7e7ea" font-size="10.5" font-weight="400">Onboarding Acme</text><line x1="731.4285714285714" y1="228.8" x2="731.4285714285714" y2="361.6" stroke="#303034" stroke-width="1"/><line x1="548.5714285714286" y1="361.6" x2="731.4285714285714" y2="361.6" stroke="#303034" stroke-width="1"/><text x="717.4285714285714" y="250.8" fill="#9a9aa2" font-size="12" text-anchor="end">11</text><rect x="556.5714285714286" y="262.8" width="166.85714285714286" height="20" fill="#303034" rx="5"/><circle cx="565.5714285714286" cy="272.8" r="3.5" fill="#0891b2"/><text x="574.5714285714286" y="276.8" fill="#9a9aa2" font-size="10.5" font-weight="600">16:30</text><text x="606.5714285714286" y="276.8" fill="#e7e7ea" font-size="10.5">Tandarts</text><line x1="914.2857142857143" y1="228.8" x2="914.2857142857143" y2="361.6" stroke="#303034" stroke-width="1"/><line x1="731.4285714285714" y1="361.6" x2="914.2857142857143" y2="361.6" stroke="#303034" stroke-width="1"/><text x="900.2857142857143" y="250.8" fill="#9a9aa2" font-size="12" text-anchor="end">12</text><line x1="1097.142857142857" y1="228.8" x2="1097.142857142857" y2="361.6" stroke="#303034" stroke-width="1"/><line x1="914.2857142857143" y1="361.6" x2="1097.142857142857" y2="361.6" stroke="#303034" stroke-width="1"/><text x="1083.142857142857" y="250.8" fill="#9a9aa2" font-size="12" text-anchor="end">13</text><line x1="1280" y1="228.8" x2="1280" y2="361.6" stroke="#303034" stroke-width="1"/><line x1="1097.142857142857" y1="361.6" x2="1280" y2="361.6" stroke="#303034" stroke-width="1"/><text x="1266" y="250.8" fill="#9a9aa2" font-size="12" text-anchor="end">14</text><line x1="182.85714285714286" y1="361.6" x2="182.85714285714286" y2="494.40000000000003" stroke="#303034" stroke-width="1"/><line x1="0" y1="494.40000000000003" x2="182.85714285714286" y2="494.40000000000003" stroke="#303034" stroke-width="1"/><text x="168.85714285714286" y="383.6" fill="#9a9aa2" font-size="12" text-anchor="end">15</text><rect x="8" y="395.6" width="166.85714285714286" height="20" fill="#303034" rx="5"/><rect x="8" y="395.6" width="3" height="20" fill="#4a4a52"/><text x="18" y="409.6" fill="#e7e7ea" font-size="10.5" font-weight="400">Sprint plannen</text><line x1="365.7142857142857" y1="361.6" x2="365.7142857142857" y2="494.40000000000003" stroke="#303034" stroke-width="1"/><line x1="182.85714285714286" y1="494.40000000000003" x2="365.7142857142857" y2="494.40000000000003" stroke="#303034" stroke-width="1"/><text x="351.7142857142857" y="383.6" fill="#9a9aa2" font-size="12" text-anchor="end">16</text><line x1="548.5714285714286" y1="361.6" x2="548.5714285714286" y2="494.40000000000003" stroke="#303034" stroke-width="1"/><line x1="365.7142857142857" y1="494.40000000000003" x2="548.5714285714286" y2="494.40000000000003" stroke="#303034" stroke-width="1"/><text x="534.5714285714286" y="383.6" fill="#9a9aa2" font-size="12" text-anchor="end">17</text><rect x="373.7142857142857" y="395.6" width="166.85714285714286" height="20" fill="#303034" rx="5"/><circle cx="382.7142857142857" cy="405.6" r="3.5" fill="#2563eb"/><text x="391.7142857142857" y="409.6" fill="#9a9aa2" font-size="10.5" font-weight="600">09:00</text><text x="423.7142857142857" y="409.6" fill="#e7e7ea" font-size="10.5">Standup</text><rect x="373.7142857142857" y="419.6" width="166.85714285714286" height="20" fill="#303034" rx="5"/><rect x="373.7142857142857" y="419.6" width="3" height="20" fill="#8b5cf6"/><text x="383.7142857142857" y="433.6" fill="#e7e7ea" font-size="10.5" font-weight="400">Mail beta</text><line x1="731.4285714285714" y1="361.6" x2="731.4285714285714" y2="494.40000000000003" stroke="#303034" stroke-width="1"/><line x1="548.5714285714286" y1="494.40000000000003" x2="731.4285714285714" y2="494.40000000000003" stroke="#303034" stroke-width="1"/><text x="717.4285714285714" y="383.6" fill="#9a9aa2" font-size="12" text-anchor="end">18</text><rect x="556.5714285714286" y="395.6" width="166.85714285714286" height="20" fill="#3a2526" rx="5"/><rect x="556.5714285714286" y="395.6" width="3" height="20" fill="#e5534b"/><text x="566.5714285714286" y="409.6" fill="#e5534b" font-size="10.5" font-weight="600">Factuur sturen</text><line x1="914.2857142857143" y1="361.6" x2="914.2857142857143" y2="494.40000000000003" stroke="#303034" stroke-width="1"/><line x1="731.4285714285714" y1="494.40000000000003" x2="914.2857142857143" y2="494.40000000000003" stroke="#303034" stroke-width="1"/><text x="900.2857142857143" y="383.6" fill="#9a9aa2" font-size="12" text-anchor="end">19</text><rect x="739.4285714285714" y="395.6" width="166.85714285714286" height="20" fill="#303034" rx="5"/><circle cx="748.4285714285714" cy="405.6" r="3.5" fill="#0891b2"/><text x="757.4285714285714" y="409.6" fill="#9a9aa2" font-size="10.5" font-weight="600">12:30</text><text x="789.4285714285714" y="409.6" fill="#e7e7ea" font-size="10.5">Lunch team</text><line x1="1097.142857142857" y1="361.6" x2="1097.142857142857" y2="494.40000000000003" stroke="#303034" stroke-width="1"/><line x1="914.2857142857143" y1="494.40000000000003" x2="1097.142857142857" y2="494.40000000000003" stroke="#303034" stroke-width="1"/><text x="1083.142857142857" y="383.6" fill="#9a9aa2" font-size="12" text-anchor="end">20</text><rect x="922.2857142857143" y="395.6" width="166.85714285714286" height="20" fill="#303034" rx="5"/><rect x="922.2857142857143" y="395.6" width="3" height="20" fill="#4a4a52"/><text x="932.2857142857143" y="409.6" fill="#e7e7ea" font-size="10.5" font-weight="400">Backup check</text><line x1="1280" y1="361.6" x2="1280" y2="494.40000000000003" stroke="#303034" stroke-width="1"/><line x1="1097.142857142857" y1="494.40000000000003" x2="1280" y2="494.40000000000003" stroke="#303034" stroke-width="1"/><text x="1266" y="383.6" fill="#9a9aa2" font-size="12" text-anchor="end">21</text><line x1="182.85714285714286" y1="494.40000000000003" x2="182.85714285714286" y2="627.2" stroke="#303034" stroke-width="1"/><line x1="0" y1="627.2" x2="182.85714285714286" y2="627.2" stroke="#303034" stroke-width="1"/><circle cx="162.85714285714286" cy="512.4000000000001" r="12" fill="#8b5cf6"/><text x="162.85714285714286" y="516.4000000000001" fill="#fff" font-size="12" font-weight="600" text-anchor="middle">22</text><rect x="8" y="528.4000000000001" width="166.85714285714286" height="20" fill="#303034" rx="5"/><circle cx="17" cy="538.4000000000001" r="3.5" fill="#2563eb"/><text x="26" y="542.4000000000001" fill="#9a9aa2" font-size="10.5" font-weight="600">09:00</text><text x="58" y="542.4000000000001" fill="#e7e7ea" font-size="10.5">Standup</text><rect x="8" y="552.4000000000001" width="166.85714285714286" height="20" fill="#3a2e22" rx="5"/><rect x="8" y="552.4000000000001" width="3" height="20" fill="#dd6b20"/><text x="18" y="566.4000000000001" fill="#dd6b20" font-size="10.5" font-weight="600">Demo voorbereiden</text><rect x="8" y="576.4000000000001" width="166.85714285714286" height="20" fill="#303034" rx="5"/><rect x="8" y="576.4000000000001" width="3" height="20" fill="#4a4a52"/><text x="18" y="590.4000000000001" fill="#e7e7ea" font-size="10.5" font-weight="400">Outlook test</text><rect x="8" y="600.4000000000001" width="166.85714285714286" height="20" fill="#303034" rx="5"/><circle cx="17" cy="610.4000000000001" r="3.5" fill="#0891b2"/><text x="26" y="614.4000000000001" fill="#9a9aa2" font-size="10.5" font-weight="600">15:30</text><text x="58" y="614.4000000000001" fill="#e7e7ea" font-size="10.5">Review</text><text x="10" y="635.4000000000001" fill="#6d6d75" font-size="10">+1 more</text><line x1="365.7142857142857" y1="494.40000000000003" x2="365.7142857142857" y2="627.2" stroke="#303034" stroke-width="1"/><line x1="182.85714285714286" y1="627.2" x2="365.7142857142857" y2="627.2" stroke="#303034" stroke-width="1"/><text x="351.7142857142857" y="516.4000000000001" fill="#9a9aa2" font-size="12" text-anchor="end">23</text><rect x="190.85714285714286" y="528.4000000000001" width="166.85714285714286" height="20" fill="#303034" rx="5"/><rect x="190.85714285714286" y="528.4000000000001" width="3" height="20" fill="#4a4a52"/><text x="200.85714285714286" y="542.4000000000001" fill="#e7e7ea" font-size="10.5" font-weight="400">Release 1.10</text><line x1="548.5714285714286" y1="494.40000000000003" x2="548.5714285714286" y2="627.2" stroke="#303034" stroke-width="1"/><line x1="365.7142857142857" y1="627.2" x2="548.5714285714286" y2="627.2" stroke="#303034" stroke-width="1"/><text x="534.5714285714286" y="516.4000000000001" fill="#9a9aa2" font-size="12" text-anchor="end">24</text><rect x="373.7142857142857" y="528.4000000000001" width="166.85714285714286" height="20" fill="#303034" rx="5"/><circle cx="382.7142857142857" cy="538.4000000000001" r="3.5" fill="#0891b2"/><text x="391.7142857142857" y="542.4000000000001" fill="#9a9aa2" font-size="10.5" font-weight="600">15:00</text><text x="423.7142857142857" y="542.4000000000001" fill="#e7e7ea" font-size="10.5">Review meeting</text><line x1="731.4285714285714" y1="494.40000000000003" x2="731.4285714285714" y2="627.2" stroke="#303034" stroke-width="1"/><line x1="548.5714285714286" y1="627.2" x2="731.4285714285714" y2="627.2" stroke="#303034" stroke-width="1"/><text x="717.4285714285714" y="516.4000000000001" fill="#9a9aa2" font-size="12" text-anchor="end">25</text><rect x="556.5714285714286" y="528.4000000000001" width="166.85714285714286" height="20" fill="#303034" rx="5"/><rect x="556.5714285714286" y="528.4000000000001" width="3" height="20" fill="#8b5cf6"/><text x="566.5714285714286" y="542.4000000000001" fill="#e7e7ea" font-size="10.5" font-weight="400">Blog schrijven</text><line x1="914.2857142857143" y1="494.40000000000003" x2="914.2857142857143" y2="627.2" stroke="#303034" stroke-width="1"/><line x1="731.4285714285714" y1="627.2" x2="914.2857142857143" y2="627.2" stroke="#303034" stroke-width="1"/><text x="900.2857142857143" y="516.4000000000001" fill="#9a9aa2" font-size="12" text-anchor="end">26</text><rect x="739.4285714285714" y="528.4000000000001" width="166.85714285714286" height="20" fill="#303034" rx="5"/><circle cx="748.4285714285714" cy="538.4000000000001" r="3.5" fill="#2563eb"/><text x="757.4285714285714" y="542.4000000000001" fill="#9a9aa2" font-size="10.5" font-weight="600">17:00</text><text x="789.4285714285714" y="542.4000000000001" fill="#e7e7ea" font-size="10.5">Borrel</text><line x1="1097.142857142857" y1="494.40000000000003" x2="1097.142857142857" y2="627.2" stroke="#303034" stroke-width="1"/><line x1="914.2857142857143" y1="627.2" x2="1097.142857142857" y2="627.2" stroke="#303034" stroke-width="1"/><text x="1083.142857142857" y="516.4000000000001" fill="#9a9aa2" font-size="12" text-anchor="end">27</text><line x1="1280" y1="494.40000000000003" x2="1280" y2="627.2" stroke="#303034" stroke-width="1"/><line x1="1097.142857142857" y1="627.2" x2="1280" y2="627.2" stroke="#303034" stroke-width="1"/><text x="1266" y="516.4000000000001" fill="#9a9aa2" font-size="12" text-anchor="end">28</text><line x1="182.85714285714286" y1="627.2" x2="182.85714285714286" y2="760" stroke="#303034" stroke-width="1"/><line x1="0" y1="760" x2="182.85714285714286" y2="760" stroke="#303034" stroke-width="1"/><text x="168.85714285714286" y="649.2" fill="#9a9aa2" font-size="12" text-anchor="end">29</text><rect x="8" y="661.2" width="166.85714285714286" height="20" fill="#303034" rx="5"/><rect x="8" y="661.2" width="3" height="20" fill="#4a4a52"/><text x="18" y="675.2" fill="#e7e7ea" font-size="10.5" font-weight="400">Maandafsluiting</text><line x1="365.7142857142857" y1="627.2" x2="365.7142857142857" y2="760" stroke="#303034" stroke-width="1"/><line x1="182.85714285714286" y1="760" x2="365.7142857142857" y2="760" stroke="#303034" stroke-width="1"/><text x="351.7142857142857" y="649.2" fill="#9a9aa2" font-size="12" text-anchor="end">30</text><rect x="190.85714285714286" y="661.2" width="166.85714285714286" height="20" fill="#303034" rx="5"/><circle cx="199.85714285714286" cy="671.2" r="3.5" fill="#2563eb"/><text x="208.85714285714286" y="675.2" fill="#9a9aa2" font-size="10.5" font-weight="600">13:00</text><text x="240.85714285714286" y="675.2" fill="#e7e7ea" font-size="10.5">Retro</text><rect x="190.85714285714286" y="685.2" width="166.85714285714286" height="20" fill="#303034" rx="5"/><rect x="190.85714285714286" y="685.2" width="3" height="20" fill="#8b5cf6"/><text x="200.85714285714286" y="699.2" fill="#e7e7ea" font-size="10.5" font-weight="400">Planning Q3</text><rect x="365.7142857142857" y="627.2" width="182.85714285714286" height="132.8" fill="#1c1c1f"/><line x1="548.5714285714286" y1="627.2" x2="548.5714285714286" y2="760" stroke="#303034" stroke-width="1"/><line x1="365.7142857142857" y1="760" x2="548.5714285714286" y2="760" stroke="#303034" stroke-width="1"/><text x="534.5714285714286" y="649.2" fill="#6d6d75" font-size="12" text-anchor="end">1</text><rect x="373.7142857142857" y="661.2" width="166.85714285714286" height="20" fill="#303034" rx="5"/><circle cx="382.7142857142857" cy="671.2" r="3.5" fill="#0891b2"/><text x="391.7142857142857" y="675.2" fill="#9a9aa2" font-size="10.5" font-weight="600">10:00</text><text x="423.7142857142857" y="675.2" fill="#e7e7ea" font-size="10.5">Webinar</text><rect x="548.5714285714286" y="627.2" width="182.85714285714286" height="132.8" fill="#1c1c1f"/><line x1="731.4285714285714" y1="627.2" x2="731.4285714285714" y2="760" stroke="#303034" stroke-width="1"/><line x1="548.5714285714286" y1="760" x2="731.4285714285714" y2="760" stroke="#303034" stroke-width="1"/><text x="717.4285714285714" y="649.2" fill="#6d6d75" font-size="12" text-anchor="end">2</text><rect x="731.4285714285714" y="627.2" width="182.85714285714286" height="132.8" fill="#1c1c1f"/><line x1="914.2857142857143" y1="627.2" x2="914.2857142857143" y2="760" stroke="#303034" stroke-width="1"/><line x1="731.4285714285714" y1="760" x2="914.2857142857143" y2="760" stroke="#303034" stroke-width="1"/><text x="900.2857142857143" y="649.2" fill="#6d6d75" font-size="12" text-anchor="end">3</text><rect x="914.2857142857143" y="627.2" width="182.85714285714286" height="132.8" fill="#1c1c1f"/><line x1="1097.142857142857" y1="627.2" x2="1097.142857142857" y2="760" stroke="#303034" stroke-width="1"/><line x1="914.2857142857143" y1="760" x2="1097.142857142857" y2="760" stroke="#303034" stroke-width="1"/><text x="1083.142857142857" y="649.2" fill="#6d6d75" font-size="12" text-anchor="end">4</text><rect x="1097.142857142857" y="627.2" width="182.85714285714286" height="132.8" fill="#1c1c1f"/><line x1="1280" y1="627.2" x2="1280" y2="760" stroke="#303034" stroke-width="1"/><line x1="1097.142857142857" y1="760" x2="1280" y2="760" stroke="#303034" stroke-width="1"/><text x="1266" y="649.2" fill="#6d6d75" font-size="12" text-anchor="end">5</text><rect x="14" y="726" width="470" height="22" fill="#161618e0" rx="6"/><circle cx="28" cy="737" r="4" fill="#2563eb"/><text x="38" y="741" fill="#9a9aa2" font-size="11">Outlook (work)</text><circle cx="150" cy="737" r="4" fill="#0891b2"/><text x="160" y="741" fill="#9a9aa2" font-size="11">Outlook (shared)</text><rect x="292" y="732" width="10" height="10" fill="#e5534b" rx="2"/><text x="308" y="741" fill="#9a9aa2" font-size="11">overdue</text><rect x="372" y="732" width="10" height="10" fill="#dd6b20" rx="2"/><text x="388" y="741" fill="#9a9aa2" font-size="11">due today</text></svg>