<svg xmlns="http://www.w3.org/2000/svg" width="1280" height="760" viewBox="0 0 1280 760" font-family="-apple-system, BlinkMacSystemFont, 'Segoe UI', Roboto, Helvetica, Arial, sans-serif"><rect x="0" y="0" width="1280" height="760" fill="#ffffff"/><rect x="0" y="0" width="40" height="760" fill="#eef0f3"/><rect x="11" y="61" width="18" height="18" fill="none" rx="5" stroke="#a855f7" stroke-width="2"/><rect x="11" y="95" width="18" height="18" fill="none" rx="5" stroke="#9aa0a8" stroke-width="2"/><rect x="11" y="129" width="18" height="18" fill="none" rx="5" stroke="#9aa0a8" stroke-width="2"/><rect x="11" y="163" width="18" height="18" fill="none" rx="5" stroke="#9aa0a8" stroke-width="2"/><line x1="580" y1="0" x2="580" y2="760" stroke="#dfe2e7" stroke-width="2"/><rect x="40" y="0" width="540" height="52" fill="#f7f8fa"/><text x="58" y="33" fill="#1f2329" font-size="15" font-weight="600">Kanban board</text><line x1="40" y1="52" x2="580" y2="52" stroke="#dfe2e7" stroke-width="1"/><rect x="56" y="66" width="240" height="678" fill="#f4f5f7" rx="10"/><text x="70" y="90" fill="#1f2329" font-size="12.5" font-weight="600">To do</text><rect x="256" y="78" width="26" height="16" fill="#dfe2e7" rx="8"/><text x="269" y="90" fill="#5b616b" font-size="10.5" text-anchor="middle">3</text><rect x="66" y="104" width="220" height="56" fill="#ffffff" rx="8" stroke="#dfe2e7" stroke-width="1"/><rect x="66" y="104" width="3" height="56" fill="#a855f7"/><rect x="76" y="114" width="56.800000000000004" height="15" fill="#a855f7" rx="7"/><text x="82" y="125" fill="#fff" font-size="9" font-weight="600">CONTENT</text><text x="76" y="147" fill="#1f2329" font-size="11.5">Blog schrijven</text><rect x="66" y="170" width="220" height="56" fill="#ffffff" rx="8" stroke="#dfe2e7" stroke-width="1"/><rect x="66" y="170" width="3" height="56" fill="#a855f7"/><rect x="76" y="180" width="37.6" height="15" fill="#a855f7" rx="7"/><text x="82" y="191" fill="#fff" font-size="9" font-weight="600">WERK</text><text x="76" y="213" fill="#1f2329" font-size="11.5">Planning Q3</text><rect x="222.8" y="201" width="53.2" height="16" fill="#dfe2e7" rx="8"/><text x="249.4" y="213" fill="#5b616b" font-size="9.5" font-weight="600" text-anchor="middle">30 Jun</text><rect x="66" y="236" width="220" height="56" fill="#ffffff" rx="8" stroke="#dfe2e7" stroke-width="1"/><rect x="66" y="236" width="3" height="56" fill="#c7ccd3"/><text x="76" y="262" fill="#1f2329" font-size="11.5">Backup check</text><rect x="308" y="66" width="240" height="678" fill="#f4f5f7" rx="10"/><text x="322" y="90" fill="#1f2329" font-size="12.5" font-weight="600">In progress</text><rect x="508" y="78" width="26" height="16" fill="#dfe2e7" rx="8"/><text x="521" y="90" fill="#5b616b" font-size="10.5" text-anchor="middle">2</text><rect x="318" y="104" width="220" height="56" fill="#ffffff" rx="8" stroke="#dfe2e7" stroke-width="1"/><rect x="318" y="104" width="3" height="56" fill="#a855f7"/><rect x="328" y="114" width="31.200000000000003" height="15" fill="#a855f7" rx="7"/><text x="334" y="125" fill="#fff" font-size="9" font-weight="600">AIM</text><text x="328" y="147" fill="#1f2329" font-size="11.5">Demo voorbereiden</text><rect x="481" y="135" width="47" height="16" fill="rgba(221,107,32,0.20)" rx="8"/><text x="504.5" y="147" fill="#c2620f" font-size="9.5" font-weight="600" text-anchor="middle">10:30</text><rect x="318" y="170" width="220" height="56" fill="#ffffff" rx="8" stroke="#dfe2e7" stroke-width="1"/><rect x="318" y="170" width="3" height="56" fill="#c7ccd3"/><text x="328" y="196" fill="#1f2329" font-size="11.5">Release 1.11</text><rect x="481" y="188" width="47" height="16" fill="rgba(221,107,32,0.20)" rx="8"/><text x="504.5" y="200" fill="#c2620f" font-size="9.5" font-weight="600" text-anchor="middle">today</text><rect x="580" y="0" width="700" height="52" fill="#f7f8fa"/><text x="598" y="33" fill="#1f2329" font-size="15" font-weight="600">June 2026</text><rect x="730" y="14" width="58" height="24" fill="#eef0f3" rx="6" stroke="#dfe2e7" stroke-width="1"/><text x="759" y="30" fill="#5b616b" font-size="11.5" font-weight="400" text-anchor="middle">Month</text><rect x="792" y="14" width="58" height="24" fill="#a855f7" rx="6"/><text x="821" y="30" fill="#fff" font-size="11.5" font-weight="600" text-anchor="middle">Week</text><rect x="854" y="14" width="58" height="24" fill="#eef0f3" rx="6" stroke="#dfe2e7" stroke-width="1"/><text x="883" y="30" fill="#5b616b" font-size="11.5" font-weight="400" text-anchor="middle">Day</text><text x="1260" y="33" fill="#5b616b" font-size="12" text-anchor="end">22–28 Jun</text><line x1="580" y1="52" x2="1280" y2="52" stroke="#dfe2e7" stroke-width="1"/><text x="598" y="90" fill="#a855f7" font-size="12.5" font-weight="700">Mon 22</text><rect x="648" y="79" width="40" height="15" fill="rgba(139,92,246,0.18)" rx="7"/><text x="668" y="90" fill="#a855f7" font-size="9" text-anchor="middle">today</text><rect x="596" y="100" width="668" height="28" fill="#ffffff" rx="6"/><text x="608" y="118" fill="#5b616b" font-size="11" font-weight="600">09:00</text><circle cx="658" cy="114" r="4" fill="#2563eb"/><text x="670" y="118" fill="#1f2329" font-size="11.5" font-weight="400">Standup</text><rect x="596" y="132" width="668" height="28" fill="#ffffff" rx="6"/><text x="608" y="150" fill="#5b616b" font-size="11" font-weight="600">10:30</text><rect x="654" y="138" width="3" height="16" fill="#a855f7"/><text x="670" y="150" fill="#c2620f" font-size="11.5" font-weight="600">Demo voorbereiden</text><rect x="596" y="164" width="668" height="28" fill="#ffffff" rx="6"/><text x="608" y="182" fill="#5b616b" font-size="11" font-weight="600">14:00</text><circle cx="658" cy="178" r="4" fill="#0891b2"/><text x="670" y="182" fill="#1f2329" font-size="11.5" font-weight="400">Klant call</text><rect x="596" y="196" width="668" height="28" fill="#ffffff" rx="6"/><text x="608" y="214" fill="#5b616b" font-size="11" font-weight="600">16:00</text><rect x="654" y="202" width="3" height="16" fill="#a855f7"/><text x="670" y="214" fill="#1f2329" font-size="11.5" font-weight="400">Mail beta</text><text x="598" y="250" fill="#1f2329" font-size="12.5" font-weight="700">Tue 23</text><rect x="596" y="260" width="668" height="28" fill="#ffffff" rx="6"/><text x="608" y="278" fill="#5b616b" font-size="11" font-weight="600">09:00</text><circle cx="658" cy="274" r="4" fill="#2563eb"/><text x="670" y="278" fill="#1f2329" font-size="11.5" font-weight="400">Standup</text><rect x="596" y="292" width="668" height="28" fill="#ffffff" rx="6"/><text x="608" y="310" fill="#5b616b" font-size="11" font-weight="600">11:00</text><rect x="654" y="298" width="3" height="16" fill="#c7ccd3"/><text x="670" y="310" fill="#1f2329" font-size="11.5" font-weight="400">Release 1.11</text><text x="598" y="346" fill="#1f2329" font-size="12.5" font-weight="700">Wed 24</text><rect x="596" y="356" width="668" height="28" fill="#ffffff" rx="6"/><text x="608" y="374" fill="#5b616b" font-size="11" font-weight="600">15:00</text><circle cx="658" cy="370" r="4" fill="#0891b2"/><text x="670" y="374" fill="#1f2329" font-size="11.5" font-weight="400">Review meeting</text><rect x="596" y="388" width="668" height="28" fill="#ffffff" rx="6"/><text x="608" y="406" fill="#5b616b" font-size="11" font-weight="600">—</text><rect x="654" y="394" width="3" height="16" fill="#a855f7"/><text x="670" y="406" fill="#1f2329" font-size="11.5" font-weight="400">Blog schrijven</text><text x="598" y="442" fill="#1f2329" font-size="12.5" font-weight="700">Thu 25</text><rect x="596" y="452" width="668" height="28" fill="#ffffff" rx="6"/><text x="608" y="470" fill="#5b616b" font-size="11" font-weight="600">13:00</text><circle cx="658" cy="466" r="4" fill="#0891b2"/><text x="670" y="470" fill="#1f2329" font-size="11.5" font-weight="400">Lunch team</text><rect x="596" y="484" width="668" height="28" fill="#ffffff" rx="6"/><text x="608" y="502" fill="#5b616b" font-size="11" font-weight="600">17:00</text><circle cx="658" cy="498" r="4" fill="#2563eb"/><text x="670" y="502" fill="#1f2329" font-size="11.5" font-weight="400">Borrel</text><circle cx="604" cy="738" r="4" fill="#2563eb"/><text x="614" y="742" fill="#5b616b" font-size="10.5">Outlook</text><rect x="676" y="734" width="8" height="8" fill="#a855f7" rx="2"/><text x="690" y="742" fill="#5b616b" font-size="10.5">task</text></svg>